<svg width="218" height="197" viewBox="0 0 218 197" fill="none" xmlns="http://www.w3.org/2000/svg">
<g opacity="0.1" clip-path="url(#clip0_253_2789)">
<path d="M21.9429 159L21.9975 158.799L21.8939 158.619C13.3716 143.805 8.40067 126.168 8.40067 108.536C8.40067 52.8126 53.8487 7.66357 109.956 7.66357C136.943 7.66357 162.509 18.2444 181.685 37.2922C200.853 56.3329 210.799 81.725 211.511 107.834C211.507 163.555 166.061 208.701 109.956 208.701C92.9122 208.701 76.5766 204.468 61.657 196.706L61.4861 196.617L61.2997 196.665L7.89625 210.625L21.9429 159ZM126.186 156.498L126.217 156.51L126.25 156.518C132.027 157.953 137.803 157.954 142.147 157.236C144.746 156.866 148.56 155.23 151.979 152.996C155.391 150.766 158.538 147.857 159.667 144.867C160.754 141.987 161.3 139.283 161.482 137.021C161.663 134.771 161.487 132.924 161.101 131.771L161.063 131.659L160.979 131.576C160.57 131.169 159.983 130.787 159.173 130.341C158.364 129.894 157.29 129.361 155.881 128.66C154.745 127.917 150.995 125.968 147.289 124.128C145.414 123.196 143.536 122.286 141.993 121.564C140.463 120.848 139.229 120.302 138.66 120.113L138.604 120.095C137.576 119.754 136.421 119.372 135.336 119.47C134.764 119.521 134.206 119.704 133.69 120.086C133.177 120.465 132.73 121.02 132.347 121.781C131.662 123.142 130.091 125.229 128.482 127.182C126.882 129.124 125.288 130.883 124.591 131.576C123.901 132.261 123.273 132.709 122.526 132.858C121.782 133.005 120.828 132.873 119.456 132.191C119.016 131.973 118.463 131.723 117.805 131.425C114.151 129.773 107.283 126.667 98.8669 119.503C91.0678 112.459 86.1109 104.714 84.7103 101.932L84.6963 101.904L84.6789 101.878C84.3582 101.4 84.2164 100.99 84.1814 100.634C84.1467 100.28 84.2142 99.9466 84.3633 99.6136C84.6745 98.918 85.3108 98.2765 86.0434 97.5488C86.364 97.2304 86.8084 96.6593 87.2972 96.0313C87.3969 95.9032 87.4985 95.7727 87.6012 95.6414C88.2258 94.8439 88.9225 93.98 89.6117 93.2954C91.0968 91.8202 91.8412 90.3414 92.5526 88.9282L92.5607 88.9121C93.3456 87.3528 93.3456 85.7683 92.5607 84.209L92.5241 84.1364L92.4665 84.0792C92.4692 84.0818 92.4685 84.0808 92.4643 84.0749C92.4539 84.0601 92.4218 84.0142 92.366 83.9165C92.2971 83.796 92.211 83.6306 92.1086 83.4218C91.9042 83.0049 91.6455 82.4365 91.3454 81.7519C90.7457 80.384 89.9892 78.5719 89.1865 76.6227C88.6763 75.3839 88.1473 74.0894 87.6285 72.8201C86.5177 70.102 85.454 67.499 84.7228 65.8043C83.6293 63.2699 82.4909 62.0755 81.3471 61.5591C80.4505 61.1543 79.5751 61.2009 78.9536 61.2339C78.8049 61.2418 78.6707 61.249 78.5543 61.249H78.5459H78.5375H78.5291H78.5207H78.5123H78.5038H78.4954H78.4869H78.4784H78.4698H78.4613H78.4528H78.4442H78.4356H78.427H78.4184H78.4098H78.4012H78.3925H78.3838H78.3752H78.3665H78.3577H78.349H78.3403H78.3315H78.3227H78.3139H78.3051H78.2963H78.2875H78.2786H78.2698H78.2609H78.252H78.2431H78.2342H78.2253H78.2163H78.2074H78.1984H78.1894H78.1804H78.1714H78.1624H78.1533H78.1443H78.1352H78.1261H78.117H78.1079H78.0988H78.0897H78.0805H78.0714H78.0622H78.053H78.0438H78.0346H78.0254H78.0162H78.0069H77.9976H77.9884H77.9791H77.9698H77.9605H77.9512H77.9418H77.9325H77.9231H77.9138H77.9044H77.895H77.8856H77.8762H77.8667H77.8573H77.8479H77.8384H77.8289H77.8194H77.81H77.8004H77.7909H77.7814H77.7719H77.7623H77.7528H77.7432H77.7336H77.724H77.7144H77.7048H77.6952H77.6855H77.6759H77.6663H77.6566H77.6469H77.6372H77.6275H77.6178H77.6081H77.5984H77.5887H77.5789H77.5692H77.5594H77.5497H77.5399H77.5301H77.5203H77.5105H77.5007H77.4908H77.481H77.4712H77.4613H77.4515H77.4416H77.4317H77.4218H77.4119H77.402H77.3921H77.3822H77.3723H77.3623H77.3524H77.3424H77.3325H77.3225H77.3125H77.3026H77.2926H77.2826H77.2726H77.2626H77.2525H77.2425H77.2325H77.2224H77.2124H77.2023H77.1922H77.1822H77.1721H77.162H77.1519H77.1418H77.1317H77.1216H77.1115H77.1014H77.0912H77.0811H77.0709H77.0608H77.0506H77.0405H77.0303H77.0201H77.0099H76.9998H76.9896H76.9794H76.9692H76.959H76.9487H76.9385H76.9283H76.9181H76.9078H76.8976H76.8873H76.8771H76.8668H76.8566H76.8463H76.836H76.8257H76.8155H76.8052H76.7949H76.7846H76.7743H76.764H76.7537H76.7434H76.733H76.7227H76.7124H76.7021H76.6917H76.6814H76.6711H76.6607H76.6504H76.64H76.6297H76.6193H76.6089H76.5986H76.5882H76.5778H76.5674H76.5571H76.5467H76.5363H76.5259H76.5155H76.5051H76.4947H76.4843H76.4739H76.4635H76.4531H76.4427H76.4323H76.4219H76.4115H76.401H76.3906H76.3802H76.3698H76.3594H76.3489H76.3385H76.3281H76.3176H76.3072H76.2968H76.2863H76.2759H76.2654H76.255H76.2446H76.2341H76.2237H76.2132H76.2028H76.1923H76.1819H76.1714H76.161H76.1505H76.1401H76.1296H76.1192H76.1087H76.0983H76.0878H76.0774H76.0669H76.0564H76.046H76.0355H76.0251H76.0146H76.0042H75.9937H75.9833H75.9728H75.9624H75.9519H75.9415H75.931H75.9206H75.9101H75.8997H75.8892H75.8788H75.8683H75.8579H75.8475H75.837H75.8266H75.8161H75.8057H75.7953H75.7848H75.7744H75.764H75.7535H75.7431H75.7327H75.7223H75.7118H75.7014H75.691H75.6806H75.6702H75.6598H75.6494H75.639H75.6286H75.6182H75.6078H75.5974H75.587H75.5766H75.5662H75.5558H75.5454H75.5351H75.5247H75.5143H75.504H75.4936H75.4832H75.4729H75.4625H75.4522H75.4418H75.4315H75.4212H75.4108H75.4005H75.3902H75.3798H75.3695H75.3592H75.3489H75.3386H75.3283H75.318H75.3077H75.2974H75.2871H75.2769H75.2666H75.2563H75.2461H75.2358H75.2256H75.2153H75.2051H75.1948H75.1846H75.1744H75.1642H75.1539H75.1437H75.1335H75.1233H75.1131H75.1029H75.0928H75.0826H75.0724H75.0623H75.0521H75.0419H75.0318H75.0217H75.0115H75.0014H74.9913H74.9812H74.9711H74.961H74.9509H74.9408H74.9307H74.9206H74.9106H74.9005H74.8905H74.8804H74.8704H74.8604H74.8503H74.8403H74.8303H74.8203H74.8103H74.8004H74.7904H74.7804H74.7704H74.7605H74.7506H74.7406H74.7307H74.7208H74.7109H74.701H74.6911H74.6812H74.6713H74.6614H74.6516H74.6417H74.6319H74.622H74.6122H74.6024H74.5926H74.5828H74.573H74.5632H74.5535H74.5437H74.534H74.5242H74.5145H74.5048H74.495H74.4854H74.4757H74.466H74.4563H74.4466H74.437H74.4273H74.4177H74.4081H74.3985H74.3889H74.3793H74.3697H74.3601H74.3506H74.341H74.3315H74.322H74.3124H74.3029H74.2934H74.284H74.2745H74.265H74.2556H74.2461H74.2367H74.2273H74.2179H74.2085H74.1991H74.1898H74.1804H74.1711H74.1617H74.1524H74.1431H74.1338H74.1245H74.1152H74.106H74.0967H74.0875H74.0783H74.0691H74.0599H74.0507H74.0415H74.0324H74.0232H74.0141H74.005H73.9959H73.9868H73.9777H73.9686H73.9596H73.9505H73.9415H73.9325H73.9235H73.9145H73.9055H73.8966H73.8876H73.8787H73.8698H73.8609H73.852H73.8431H73.8342H73.8254H73.8166H73.8077H73.7989H73.7902H73.7814H73.7726H73.7639H73.7551H73.7464H73.7377H73.729H73.7204H73.7117H73.7031H73.6945H73.6859H73.6773H73.6687H73.6601H73.6516H73.643H73.6345H73.626H73.6175H73.6091H73.6006H73.5922H73.5838H73.5754H73.567H73.5586H73.5262C71.3925 61.2489 68.314 61.2488 66.0228 64.2833C65.7594 64.6321 65.4162 65.0391 65.0193 65.5098C63.8821 66.8583 62.3041 68.7295 60.9 71.2533C58.988 74.6899 57.3578 79.3809 57.3578 85.8516C57.3578 92.345 59.7155 98.6306 62.2319 103.451C64.7068 108.192 67.3668 111.575 68.1741 112.399C68.2094 112.452 68.252 112.516 68.3019 112.591C70.4964 115.897 86.7718 140.414 111.89 150.817C115.892 152.804 119.575 154.109 122.626 155.191C123.938 155.656 125.133 156.079 126.186 156.498Z" fill="#00A0E3" stroke="#00A0E3"/>
</g>
<defs>
<clipPath id="clip0_253_2789">
<rect width="218" height="197" fill="white"/>
</clipPath>
</defs>
</svg>
