<svg width="202" height="172" viewBox="0 0 202 172" fill="none" xmlns="http://www.w3.org/2000/svg">
<g clip-path="url(#clip0_253_2795)">
<path opacity="0.1" d="M183.633 133.523L183.636 133.524C185.653 134.406 187.301 135.965 188.297 137.934C189.292 139.903 189.573 142.159 189.09 144.313L189.09 144.316L180.239 182.83C179.763 184.899 178.603 186.745 176.947 188.067C175.291 189.389 173.237 190.108 171.121 190.106M183.633 133.523L171.122 189.606M183.633 133.523L142.328 115.747L142.327 115.747C140.463 114.949 138.39 114.781 136.422 115.268C134.455 115.755 132.698 116.87 131.417 118.446M183.633 133.523L131.416 118.446M171.121 190.106L171.122 189.606M171.121 190.106C171.121 190.106 171.121 190.106 171.122 190.106V189.606M171.121 190.106C76.3948 190.106 -0.5 113.037 -0.5 17.7727C-0.500474 15.6502 0.215492 13.5899 1.53143 11.9282C2.8474 10.2665 4.68575 9.10131 6.74667 8.62342L6.74674 8.6234L45.1016 -0.264549L45.1032 -0.264923C47.2401 -0.752647 49.4794 -0.476321 51.435 0.516234C53.3905 1.50877 54.9394 3.15511 55.815 5.17095L55.8162 5.17388L73.5185 46.651L73.5185 46.6511C74.3167 48.5219 74.4861 50.6029 74.0011 52.579C73.5162 54.5548 72.4035 56.3185 70.831 57.6031L70.8314 57.6028L70.5139 57.2165M171.122 189.606C76.6728 189.606 0 112.763 0 17.7725C-0.000449272 15.7626 0.677572 13.8118 1.9234 12.2386C3.16923 10.6654 4.90931 9.56274 6.85962 9.1105L45.2145 0.222544C47.2373 -0.239162 49.3573 0.0223871 51.2087 0.962091C53.0601 1.90179 54.527 3.46075 55.3564 5.37015L73.0586 46.8473C73.8143 48.6185 73.9747 50.5888 73.5155 52.4598C73.0564 54.3308 72.0026 56.0007 70.5139 57.2165M70.5139 57.2165L70.8302 57.6038M70.5139 57.2165L48.1648 75.585C61.7004 104.413 84.8038 127.612 113.512 141.204L131.804 118.762M70.8302 57.6038L142.13 116.207C140.366 115.451 138.405 115.292 136.543 115.753C134.68 116.214 133.017 117.27 131.804 118.762M70.8302 57.6038L48.7831 75.724C62.2359 104.166 85.0499 127.075 113.372 140.584L131.416 118.446M70.8302 57.6038L131.416 118.446M131.804 118.762L131.416 118.446M131.804 118.762L131.417 118.446M131.416 118.446L131.417 118.446M131.416 118.446L131.417 118.446" fill="#00A0E3" stroke="#00A0E3"/>
</g>
<defs>
<clipPath id="clip0_253_2795">
<path d="M0 0H202V152C202 163.046 193.046 172 182 172H0V0Z" fill="white"/>
</clipPath>
</defs>
</svg>
