<svg width="62" height="51" viewBox="0 0 62 51" fill="none" xmlns="http://www.w3.org/2000/svg">
<g clip-path="url(#clip0_253_2251)">
<path d="M48.3771 13.8893C49.4341 10.8764 45.9128 8.33956 43.3896 10.2963L42.7774 10.7719C42.3999 11.065 41.9615 11.2699 41.4945 11.3715C41.0275 11.4732 40.5437 11.469 40.0785 11.3593C39.6133 11.2496 39.1786 11.0372 38.8061 10.7376C38.4337 10.4381 38.1331 10.0589 37.9263 9.62806L37.5934 8.92994C36.2088 6.05057 31.9247 6.74679 31.5261 9.91596L31.4284 10.684C31.1715 12.7097 29.1152 13.981 27.1891 13.3052L26.4578 13.0479C23.4449 11.9909 20.908 15.5122 22.8648 18.0354L23.3404 18.6476C23.6335 19.0251 23.8384 19.4635 23.94 19.9305C24.0417 20.3975 24.0375 20.8813 23.9278 21.3465C23.8181 21.8117 23.6057 22.2464 23.3061 22.6189C23.0065 22.9913 22.6274 23.2919 22.1965 23.4987L21.4984 23.8316C18.619 25.2162 19.3153 29.5003 22.4844 29.8989L23.2525 29.9966C23.7267 30.0563 24.1815 30.2215 24.5836 30.4798C24.9857 30.7382 25.3249 31.0833 25.5762 31.4898C25.8276 31.8964 25.9847 32.354 26.0362 32.8291C26.0877 33.3043 26.0321 33.785 25.8737 34.2359L25.6164 34.9672C24.5593 37.9801 28.0807 40.517 30.6038 38.5602L31.2161 38.0846C31.5936 37.7915 32.0319 37.5866 32.4989 37.485C32.966 37.3833 33.4498 37.3875 33.915 37.4972C34.3802 37.6069 34.8149 37.8193 35.1873 38.1189C35.5597 38.4185 35.8604 38.7976 36.0672 39.2285L36.4 39.9266C37.7847 42.806 42.0688 42.1097 42.4674 38.9406L42.5651 38.1725C42.6248 37.6983 42.7899 37.2435 43.0483 36.8414C43.3067 36.4393 43.6518 36.1001 44.0583 35.8488C44.4648 35.5974 44.9224 35.4403 45.3976 35.3888C45.8728 35.3373 46.3534 35.3929 46.8043 35.5513L47.5357 35.8086C50.5486 36.8657 53.0854 33.3443 51.1287 30.8212L50.6531 30.2089C50.36 29.8314 50.1551 29.3931 50.0535 28.9261C49.9518 28.459 49.956 27.9752 50.0657 27.51C50.1754 27.0448 50.3878 26.6101 50.6874 26.2377C50.9869 25.8653 51.3661 25.5646 51.7969 25.3578L52.4951 25.025C55.3744 23.6403 54.6782 19.3562 51.509 18.9576L50.741 18.8599C50.2668 18.8002 49.8119 18.6351 49.4098 18.3767C49.0078 18.1183 48.6686 17.7732 48.4173 17.3667C48.1659 16.9602 48.0087 16.5026 47.9573 16.0274C47.9058 15.5522 47.9613 15.0716 48.1198 14.6206L48.3771 13.8893ZM33.2503 29.6287C31.8711 28.6351 30.943 27.1342 30.6704 25.4564C30.3977 23.7785 30.8027 22.0611 31.7963 20.6818C32.7899 19.3026 34.2908 18.3746 35.9686 18.1019C37.6465 17.8292 39.3639 18.2342 40.7432 19.2279C42.1219 20.2211 43.0497 21.7214 43.3222 23.3987C43.5948 25.076 43.1899 26.7929 42.1966 28.1716C41.2034 29.5504 39.7031 30.4781 38.0258 30.7507C36.3485 31.0233 34.6316 30.6184 33.2529 29.6251L33.2503 29.6287Z" fill="#0C54A0"/>
</g>
<g clip-path="url(#clip1_253_2251)">
<path d="M19.1072 29.2577C19.3374 27.3558 16.9464 26.3243 15.7208 27.7968L15.4235 28.1545C15.2402 28.375 15.0098 28.5517 14.7493 28.6716C14.4888 28.7915 14.2047 28.8515 13.918 28.8474C13.6313 28.8432 13.3491 28.7749 13.0922 28.6475C12.8353 28.52 12.6102 28.3367 12.4333 28.111L12.1481 27.7449C10.9648 26.2367 8.5446 27.1981 8.72045 29.1065L8.76243 29.5691C8.87358 30.7892 7.83298 31.7997 6.61713 31.6526L6.15539 31.5963C4.25348 31.3661 3.22197 33.7571 4.69443 34.9827L5.05218 35.28C5.27269 35.4633 5.44936 35.6937 5.56925 35.9542C5.68913 36.2147 5.74919 36.4988 5.74501 36.7855C5.74084 37.0722 5.67253 37.3544 5.54511 37.6113C5.41769 37.8682 5.23438 38.0933 5.00863 38.2702L4.64259 38.5554C3.13435 39.7387 4.09571 42.1589 6.00411 41.983L6.46677 41.9411C6.75234 41.9148 7.04016 41.9528 7.30913 42.0523C7.5781 42.1517 7.8214 42.3101 8.02119 42.5158C8.22097 42.7215 8.37218 42.9694 8.46372 43.2411C8.55526 43.5129 8.58481 43.8017 8.55021 44.0864L8.49395 44.5481C8.26379 46.45 10.6548 47.4815 11.8804 46.0091L12.1777 45.6513C12.361 45.4308 12.5914 45.2541 12.8519 45.1343C13.1124 45.0144 13.3964 44.9543 13.6832 44.9585C13.9699 44.9627 14.2521 45.031 14.509 45.1584C14.7659 45.2858 14.991 45.4691 15.1678 45.6949L15.453 46.0609C16.6363 47.5692 19.0566 46.6078 18.8807 44.6994L18.8387 44.2367C18.8125 43.9512 18.8505 43.6633 18.9499 43.3944C19.0494 43.1254 19.2077 42.8821 19.4135 42.6823C19.6192 42.4825 19.867 42.3313 20.1388 42.2398C20.4105 42.1482 20.6994 42.1187 20.984 42.1533L21.4458 42.2095C23.3477 42.4397 24.3792 40.0487 22.9067 38.8231L22.549 38.5258C22.3285 38.3425 22.1518 38.1121 22.0319 37.8516C21.912 37.5911 21.852 37.3071 21.8561 37.0204C21.8603 36.7336 21.9286 36.4514 22.056 36.1945C22.1835 35.9376 22.3668 35.7125 22.5925 35.5357L22.9586 35.2505C24.4668 34.0672 23.5054 31.6469 21.597 31.8228L21.1344 31.8648C20.8488 31.891 20.561 31.853 20.292 31.7536C20.0231 31.6541 19.7798 31.4958 19.58 31.29C19.3802 31.0843 19.229 30.8365 19.1374 30.5647C19.0459 30.293 19.0163 30.0041 19.0509 29.7195L19.1072 29.2577ZM12.2772 40.434C11.3407 40.0299 10.6031 39.2705 10.2266 38.3226C9.85007 37.3747 9.86552 36.3161 10.2695 35.3796C10.6736 34.4431 11.433 33.7054 12.3809 33.3289C13.3288 32.9524 14.3874 32.9679 15.3239 33.3719C16.2601 33.7758 16.9975 34.535 17.3739 35.4826C17.7503 36.4301 17.7348 37.4884 17.3309 38.4246C16.927 39.3607 16.1678 40.0981 15.2203 40.4745C14.2727 40.8509 13.2144 40.8354 12.2783 40.4316L12.2772 40.434Z" fill="#00A0E3"/>
</g>
<defs>
<clipPath id="clip0_253_2251">
<rect width="35" height="35" fill="white" transform="translate(33.0269) rotate(35.7695)"/>
</clipPath>
<clipPath id="clip1_253_2251">
<rect width="21" height="21" fill="white" transform="translate(8.31885 23.1025) rotate(23.3362)"/>
</clipPath>
</defs>
</svg>
