<svg width="21" height="21" viewBox="0 0 21 21" fill="none" xmlns="http://www.w3.org/2000/svg">
<g clip-path="url(#clip0_3651_9345)">
<path d="M3.89809 17.3262C3.72047 17.1279 3.50821 16.9634 3.27163 16.8408C3.02809 16.7131 2.7625 16.6326 2.48891 16.6036C2.44999 16.5977 2.41072 16.5945 2.37137 16.5939H2.23308C1.79449 16.5885 1.36449 16.7154 0.999521 16.958C0.643604 17.1934 0.362087 17.5248 0.187756 17.9136C0.128446 18.0515 0.082149 18.1946 0.049465 18.3411C-0.0177904 18.6389 -0.0177904 18.9479 0.049465 19.2457C0.0820897 19.3926 0.128387 19.5362 0.187756 19.6746C0.36501 20.0597 0.646041 20.3881 0.999521 20.6233C1.36319 20.8679 1.79309 20.9959 2.23169 20.9901C2.40189 20.991 2.57165 20.973 2.73783 20.9363C2.89319 20.8994 3.04463 20.8477 3.19005 20.7819L3.25504 20.746C3.28852 20.726 3.32369 20.709 3.36014 20.695L3.45695 20.6578L3.50673 20.7336C3.55216 20.8118 3.61756 20.8766 3.69626 20.9214C3.77497 20.9663 3.86416 20.9895 3.95479 20.9887C4.09191 20.9881 4.22337 20.9342 4.32126 20.8384C4.37317 20.794 4.41495 20.7391 4.44381 20.6772C4.47267 20.6154 4.48794 20.5481 4.4886 20.4799V18.792C4.4866 18.5199 4.43213 18.2507 4.32818 17.9991C4.22458 17.7519 4.0791 17.5242 3.89809 17.3262ZM3.32557 19.2567C3.26448 19.3958 3.17769 19.5221 3.06973 19.6291C2.961 19.7358 2.83225 19.8202 2.69082 19.8773C2.54375 19.9371 2.38636 19.9675 2.22754 19.9669C2.07495 19.9667 1.92414 19.9343 1.78501 19.8718C1.64656 19.8108 1.51977 19.7263 1.41025 19.6222C1.29939 19.5161 1.20935 19.3903 1.14473 19.2512C1.07682 19.1072 1.04186 18.9498 1.04239 18.7906C1.04264 18.6357 1.07562 18.4825 1.1392 18.3411C1.20148 18.2005 1.28967 18.0728 1.39918 17.9646C1.50793 17.8571 1.63539 17.7702 1.77534 17.7081C1.91836 17.6457 2.0728 17.6135 2.22893 17.6135C2.38505 17.6135 2.5395 17.6457 2.68252 17.7081C2.82464 17.7692 2.95407 17.8562 3.0642 17.9646C3.17369 18.0728 3.26187 18.2005 3.32418 18.3411C3.38776 18.4825 3.42074 18.6357 3.42099 18.7906C3.42281 18.9523 3.39029 19.1126 3.32557 19.2609V19.2567Z" fill="white"/>
<path d="M7.57558 16.6018C7.28322 16.6128 6.99518 16.6758 6.72509 16.788C6.46545 16.895 6.22778 17.0488 6.02396 17.2416C5.82664 17.4346 5.66759 17.6629 5.55515 17.9146C5.43624 18.1713 5.37535 18.4509 5.37676 18.7337V20.4905C5.37439 20.5589 5.38645 20.627 5.41218 20.6905C5.43791 20.7539 5.47673 20.8112 5.52611 20.8587C5.57243 20.9044 5.62758 20.9401 5.68821 20.9638C5.74883 20.9876 5.81367 20.9987 5.87875 20.9966C6.01699 21.0043 6.15266 20.9572 6.25628 20.8656C6.30481 20.8239 6.34413 20.7725 6.37174 20.7149C6.39935 20.6572 6.41467 20.5944 6.4167 20.5305V18.7985C6.41273 18.6378 6.44288 18.478 6.5052 18.3297C6.56441 18.191 6.64933 18.0646 6.75551 17.9573C6.86458 17.8492 6.99407 17.7636 7.13648 17.7056C7.2789 17.6476 7.43142 17.6184 7.58525 17.6195C7.72576 17.6175 7.86025 17.5623 7.96141 17.465C8.00948 17.4203 8.0476 17.366 8.07333 17.3057C8.09906 17.2454 8.11181 17.1803 8.11076 17.1148C8.1016 16.9767 8.04208 16.8467 7.94343 16.7493C7.89567 16.7007 7.83832 16.6625 7.77501 16.6371C7.71169 16.6117 7.64379 16.5997 7.57558 16.6018Z" fill="white"/>
<path d="M12.8292 19.8179C12.8016 19.7598 12.7614 19.7085 12.7117 19.6676C12.6099 19.575 12.476 19.5255 12.3383 19.5297H12.3286C12.1903 19.5272 12.0561 19.5764 11.9525 19.6676C11.8524 19.7632 11.7332 19.8366 11.6026 19.8827C11.4513 19.9337 11.2921 19.9575 11.1324 19.9531C10.9688 19.9539 10.8069 19.9211 10.6567 19.8565C10.5133 19.7948 10.3839 19.7048 10.2764 19.5918C10.1784 19.4795 10.1024 19.35 10.0523 19.2098C9.99979 19.0636 9.97722 18.9084 9.98597 18.7533V17.6212H11.1614C11.2287 17.6203 11.2949 17.6055 11.3561 17.5777C11.4173 17.55 11.472 17.5098 11.5168 17.4599C11.5664 17.4137 11.6061 17.3582 11.6338 17.2965C11.6615 17.2348 11.6766 17.1682 11.6781 17.1007C11.6797 17.0331 11.6677 16.9659 11.6428 16.903C11.618 16.8401 11.5808 16.7829 11.5334 16.7345C11.4855 16.6856 11.4273 16.6478 11.3629 16.624C11.2986 16.6001 11.2298 16.5908 11.1614 16.5966H9.98597V15.6093C9.98853 15.5437 9.97603 15.4784 9.94943 15.4185C9.92282 15.3585 9.88281 15.3053 9.83246 15.2631C9.71885 15.1703 9.5755 15.1213 9.42865 15.1252C9.28389 15.1212 9.14268 15.1703 9.03176 15.2631C8.98141 15.3053 8.94139 15.3585 8.91479 15.4185C8.88818 15.4784 8.87569 15.5437 8.87826 15.6093V18.7451C8.87279 19.0623 8.93599 19.377 9.06356 19.6676C9.18205 19.9351 9.35378 20.1757 9.56833 20.375C9.7845 20.5732 10.0372 20.7278 10.3123 20.8301C10.6021 20.9375 10.909 20.9917 11.2181 20.9901C11.5029 20.9924 11.7852 20.9371 12.0479 20.8273C12.3118 20.7143 12.5527 20.554 12.7587 20.3543C12.8029 20.3108 12.8361 20.2574 12.8555 20.1985C12.8767 20.136 12.8861 20.07 12.8831 20.0041C12.8779 19.9391 12.8595 19.8757 12.8292 19.8179Z" fill="white"/>
<path d="M20.0079 20.1198L18.672 18.7932L20.0065 17.4667C20.0525 17.4186 20.0884 17.3619 20.1121 17.2999C20.1359 17.2379 20.147 17.1717 20.1448 17.1054C20.1473 17.04 20.1363 16.9748 20.1125 16.9138C20.0888 16.8529 20.0527 16.7974 20.0065 16.751C19.9106 16.653 19.78 16.5965 19.6428 16.5938H19.6372C19.5737 16.5941 19.5108 16.6073 19.4526 16.6327C19.3943 16.6581 19.3419 16.695 19.2984 16.7413L17.9335 18.0693L16.5976 16.7537C16.4971 16.6616 16.3686 16.6058 16.2325 16.5951C16.1641 16.5924 16.0959 16.605 16.033 16.6319C15.97 16.6589 15.9139 16.6996 15.8688 16.751C15.7791 16.8519 15.7247 16.9792 15.7139 17.1136C15.7094 17.1759 15.7196 17.2384 15.7436 17.2961C15.7676 17.3538 15.8048 17.4051 15.8522 17.446L17.2171 18.7919L15.8522 20.1377C15.8046 20.184 15.7675 20.24 15.7437 20.3019C15.7198 20.3638 15.7096 20.4301 15.7139 20.4963C15.7182 20.6297 15.7743 20.7562 15.8702 20.8493C15.9171 20.8985 15.9746 20.9364 16.0383 20.9603C16.102 20.9842 16.1703 20.9934 16.238 20.9872C16.3731 20.9837 16.5031 20.9351 16.6073 20.8493L17.9376 19.5282L19.2735 20.8245C19.3214 20.8777 19.38 20.9202 19.4456 20.9492C19.5111 20.9782 19.5821 20.9931 19.6538 20.9927C19.7202 20.9954 19.7865 20.9846 19.8486 20.9609C19.9106 20.9372 19.9672 20.9011 20.0148 20.8548C20.0655 20.8077 20.1052 20.7501 20.1313 20.686C20.1573 20.6219 20.169 20.5529 20.1655 20.4839C20.165 20.4158 20.1508 20.3484 20.1237 20.2859C20.0966 20.2234 20.0572 20.1669 20.0079 20.1198Z" fill="white"/>
<path d="M14.5897 16.7372C14.5566 16.7088 14.5204 16.6843 14.4818 16.6641C14.4065 16.6168 14.3191 16.5924 14.2301 16.5938C14.1411 16.5924 14.0537 16.6168 13.9784 16.6641C13.9398 16.6843 13.9036 16.7088 13.8705 16.7372C13.8213 16.7776 13.7816 16.8283 13.7543 16.8858C13.7271 16.9432 13.7129 17.006 13.7129 17.0696V20.5074C13.7129 20.5751 13.728 20.6419 13.7569 20.7032C13.7858 20.7645 13.8279 20.8186 13.8802 20.8618C13.975 20.9453 14.0981 20.9896 14.2246 20.9859H14.2425C14.369 20.9896 14.4921 20.9453 14.5869 20.8618C14.6392 20.8186 14.6813 20.7645 14.7102 20.7032C14.7391 20.6419 14.7542 20.5751 14.7542 20.5074V17.0696C14.7534 17.0054 14.7381 16.9423 14.7097 16.8848C14.6812 16.8273 14.6402 16.7769 14.5897 16.7372Z" fill="white"/>
<path d="M14.6172 15.2924C14.5731 15.2438 14.519 15.2052 14.4587 15.179C14.3984 15.1529 14.3331 15.1398 14.2674 15.1407C14.1328 15.1379 14.0023 15.1873 13.9037 15.2786C13.8542 15.3215 13.8142 15.3741 13.7864 15.4333C13.7585 15.4924 13.7433 15.5567 13.7419 15.622C13.7362 15.6927 13.7455 15.7637 13.7694 15.8305C13.7932 15.8973 13.831 15.9583 13.8801 16.0095C13.9854 16.1045 14.1226 16.1567 14.2646 16.1557C14.3299 16.1562 14.3946 16.143 14.4544 16.1168C14.5142 16.0907 14.5678 16.0522 14.6117 16.004C14.7065 15.9089 14.7598 15.7802 14.7598 15.6461C14.7598 15.512 14.7065 15.3834 14.6117 15.2883L14.6172 15.2924Z" fill="white"/>
</g>
<g clip-path="url(#clip1_3651_9345)">
<path d="M10.0789 5.57812C8.5669 5.57812 7.19238 6.95036 7.19238 8.64272C7.19447 9.26527 7.37994 9.87163 7.72295 10.3773C8.45694 9.91601 9.25279 9.59004 10.0844 9.59004C10.9159 9.59004 11.7104 9.91601 12.4458 10.3773C12.7888 9.87163 12.9743 9.26527 12.9763 8.64272C12.9708 6.95036 11.595 5.57812 10.0789 5.57812Z" fill="white"/>
<path d="M10.0774 0C6.36623 0 3.35742 8.31924 3.35742 12.2031C3.35742 15.2168 5.1704 11.9805 7.716 10.3783C7.35681 9.85162 7.171 9.21459 7.18714 8.56519C7.20329 7.91579 7.42049 7.28999 7.80535 6.78403C7.68265 7.09469 7.61956 7.42809 7.61978 7.76481C7.61978 8.45487 7.87871 9.11666 8.33961 9.6046C8.8005 10.0925 9.42561 10.3667 10.0774 10.3667C10.7292 10.3667 11.3543 10.0925 11.8152 9.6046C12.2761 9.11666 12.535 8.45487 12.535 7.76481C12.5353 7.42809 12.4722 7.09469 12.3495 6.78403C12.7344 7.28999 12.9516 7.91579 12.9677 8.56519C12.9838 9.21459 12.798 9.85162 12.4388 10.3783C14.9858 11.979 16.7974 15.2168 16.7974 12.2031C16.7974 8.32069 13.7886 0 10.0774 0Z" fill="white"/>
</g>
<defs>
<clipPath id="clip0_3651_9345">
<rect y="15.1172" width="20.16" height="5.88" fill="white"/>
</clipPath>
<clipPath id="clip1_3651_9345">
<rect x="3.36035" width="13.44" height="13.44" fill="white"/>
</clipPath>
</defs>
</svg>
