<svg width="254" height="197" viewBox="0 0 254 197" fill="none" xmlns="http://www.w3.org/2000/svg">
<g opacity="0.1">
<g clip-path="url(#clip0_253_2802)">
<path d="M242.955 88.085H190.047L141.557 15.8615C140.547 14.3651 139.182 13.139 137.583 12.2912C135.985 11.4434 134.201 11 132.39 11C130.578 11 128.794 11.4434 127.196 12.2912C125.597 13.139 124.232 14.3651 123.222 15.8615L74.7323 88.085H22.0455C15.9705 88.085 11 93.0318 11 99.0779C11 100.067 11.1105 101.057 11.4418 102.046L39.4973 203.95C42.0377 213.184 50.5427 220 60.7045 220H204.295C214.457 220 222.962 213.184 225.613 203.95L253.669 102.046L254 99.0779C254 93.0318 249.03 88.085 242.955 88.085ZM132.39 41.8048L163.427 88.085H101.352L132.39 41.8048ZM132.5 176.028C120.35 176.028 110.409 166.135 110.409 154.042C110.409 141.95 120.35 132.057 132.5 132.057C144.65 132.057 154.591 141.95 154.591 154.042C154.591 166.135 144.65 176.028 132.5 176.028Z" fill="#00A0E3"/>
</g>
</g>
<defs>
<clipPath id="clip0_253_2802">
<path d="M0 0H254V177C254 188.046 245.046 197 234 197H0V0Z" fill="white"/>
</clipPath>
</defs>
</svg>
